<svg xmlns="http://www.w3.org/2000/svg" width="100" viewBox="0 0 84.22 22.23" id="blog-logo"><defs><style>html[data-color-mode*="dark"] #blog-logo .p{fill:#c9d1d9}</style></defs><path d="M21.13 16.08c0 .09 0 .09-.09.19l-3 2.18c-.28.19-.47.38-.76.57h-.09c-.1 0-.1-.09-.19-.09l-3.12-2.47c-.1 0-.1-.1-.1-.19v-4.08h-.09L10.8 13.9a.41.41 0 01-.47 0l-2.85-1.71h-.1v4.1c0 .1 0 .1-.09.19l-2.75 2.16c-.19 0-.29.19-.48.28h-.19l-.19-.09-3.59-2.57c-.09 0-.09-.09-.09-.19V3.25C0 3 .09 3 .28 2.77L3.4.05a.37.37 0 01.38 0l6.73 4.62h.09L17.34.05c.09-.07.09-.07.19 0l.28.29s3.32 2.75 3.32 2.84M.55 9.82v6c0 .1 0 .1.1.1l.47.28L3.58 18h.09V9.54c0-.19.19-.29.29-.19s.19 0 .19.09l1.13.66 5.32 3.32h.19l6.36-4c.09 0 .09-.09.19-.09s.28.09.28.19V18h.1l2-1.42a5.38 5.38 0 00.85-.66c.1-.1.1-.1.1-.19v-12c0-.1 0-.1-.1 0l-5.14 3.06-4.62 3a.46.46 0 01-.48 0l-1.15-.73L.65 3.47h-.1z" fill="#f0718c"/><path class="p" d="M30.51 9.83a.6.6 0 01.17-.44.57.57 0 01.43-.17h2.55a.54.54 0 01.42.17.6.6 0 01.16.44v8.94a3.19 3.19 0 01-1.06 2.56A3.9 3.9 0 0132 22a4.89 4.89 0 01-1.52.23h-3.89a4.09 4.09 0 01-2.74-.9 3 3 0 01-.85-1.09 3.57 3.57 0 01-.28-1.47v-.21a.54.54 0 01.18-.44.57.57 0 01.43-.17h2.52a.52.52 0 01.41.17.6.6 0 01.16.44.51.51 0 00.12.37.8.8 0 00.28.2.83.83 0 00.32.06h2.6a1 1 0 00.34-.06.8.8 0 00.28-.2.56.56 0 00.11-.37v-.8h-3.09a17.2 17.2 0 01-2.18-.12 3.26 3.26 0 01-1.54-.6 2.44 2.44 0 01-.94-1.29 7.26 7.26 0 01-.31-2.32v-3.6a.6.6 0 01.17-.44.57.57 0 01.42-.17h2.55a.54.54 0 01.42.17.6.6 0 01.16.44v3.54c0 .56.11.92.34 1.08a1.76 1.76 0 001.05.26h3zM43.08 16.81a2.36 2.36 0 01-1.61-.56 2.26 2.26 0 01-.64-1.81V2.21a.57.57 0 01.17-.43.54.54 0 01.41-.16h2.45a.6.6 0 01.43.16.55.55 0 01.18.43V5.8h2.25a10 10 0 012.42.27A4.92 4.92 0 0151 7a4.13 4.13 0 011.22 1.58 5.61 5.61 0 01.42 2.29v1.26a6.92 6.92 0 01-.3 2.2 3.58 3.58 0 01-.94 1.46 3.63 3.63 0 01-1.56.81 9 9 0 01-2.13.23zM47 13.7c1.33 0 2-.62 2-1.86v-1.09a2.19 2.19 0 00-.12-.73 1.58 1.58 0 00-.4-.61 1.87 1.87 0 00-.72-.41 2.69 2.69 0 00-.94-.15h-2.36v4.85zM56.87 1.62a.61.61 0 01.42.17.57.57 0 01.17.42v14a.58.58 0 01-.17.43.6.6 0 01-.42.16h-2.58a.53.53 0 01-.41-.16.58.58 0 01-.17-.43v-14a.57.57 0 01.17-.42.53.53 0 01.41-.17zM64.53 17.32a8.4 8.4 0 01-2.65-.32 4 4 0 01-1.72-1.05 3.83 3.83 0 01-1-1.7 8.45 8.45 0 01-.3-2.38v-1.61a8.55 8.55 0 01.3-2.38 3.93 3.93 0 011-1.71 4.13 4.13 0 011.72-1 8.4 8.4 0 012.65-.36h1.06a8.33 8.33 0 012.64.36 4.5 4.5 0 011.76 1 4.2 4.2 0 011 1.71 8.53 8.53 0 01.31 2.38v1.57a8.43 8.43 0 01-.31 2.38 4.09 4.09 0 01-1 1.7A4.4 4.4 0 0168.23 17a8.33 8.33 0 01-2.64.36zm.17-9.47a1.88 1.88 0 00-.91.21 2.21 2.21 0 00-.64.58 2.71 2.71 0 00-.39.84 3.52 3.52 0 00-.14 1v1.17a3 3 0 00.53 1.8 2 2 0 00.64.59 1.78 1.78 0 00.91.22h.73a1.72 1.72 0 00.9-.22 2 2 0 00.65-.59 3 3 0 00.52-1.8v-1.19a3.51 3.51 0 00-.13-1 2.71 2.71 0 00-.37-.82 2.24 2.24 0 00-.65-.58 1.81 1.81 0 00-.9-.21zM84.22 14.49a3.21 3.21 0 01-1.06 2.57 3.85 3.85 0 01-1.21.67 4.62 4.62 0 01-1.52.23h-3.86a4.08 4.08 0 01-2.73-.9A3 3 0 0173 16a3.58 3.58 0 01-.29-1.48v-.2a.57.57 0 01.18-.44.61.61 0 01.43-.17h2.52a.57.57 0 01.42.17.64.64 0 01.16.44.54.54 0 00.12.38.9.9 0 00.27.2 1.61 1.61 0 00.33.06h2.6l.33-.06a1 1 0 00.28-.2.54.54 0 00.12-.38v-.79h-3.1a16.42 16.42 0 01-2.12-.12 3.45 3.45 0 01-1.54-.55 2.47 2.47 0 01-.95-1.19 5.84 5.84 0 01-.36-2.12v-.42a7.3 7.3 0 01.3-2.34 2.78 2.78 0 01.94-1.32 3.39 3.39 0 011.55-.57 15.28 15.28 0 012.18-.13h6.28a.55.55 0 01.41.17.6.6 0 01.16.44zm-8.1-5.24a1.17 1.17 0 00.36 1 1.89 1.89 0 001 .23h3V7.85h-3a1.71 1.71 0 00-1 .25 1.3 1.3 0 00-.35 1.08z"/></svg>