<svg xmlns="http://www.w3.org/2000/svg" width="137.36" height="37.1"><path d="M41.21 31.37c0 .19 0 .19-.18.37L35.11 36c-.55.37-.92.74-1.48 1.11h-.18c-.18 0-.18-.18-.37-.18L27 32.11c-.18 0-.18-.18-.18-.37v-7.95h-.19l-5.54 3.33a.82.82 0 01-.93 0l-5.56-3.33h-.19v8c0 .19 0 .19-.18.37l-5.36 4.2c-.37 0-.55.37-.92.56h-.37l-.37-.19-7-5c-.18 0-.18-.18-.18-.37v-25c0-.55.18-.55.55-.92L6.65.14C7 0 7 0 7.39.14l13.12 9h.19l13.12-9C34 0 34 0 34.19.14l.55.55 5.92 5.18c.37 0 .55.18.55.37M1.11 19.17v11.65c0 .18 0 .18.18.18l.93.56L7 35.07h.19V18.62c0-.37.37-.56.55-.37.19 0 .37 0 .37.18l2.22 1.3L20.7 26.2h.37l12.38-7.77c.18 0 .18-.18.37-.18.37 0 .55.18.55.37v16.45h.19l3.88-2.77A9.92 9.92 0 0040.1 31c.19-.18.19-.18.19-.37V7.16c0-.18 0-.18-.19 0l-10 6.1-9 5.91a.83.83 0 01-.93 0l-2.24-1.47L1.29 6.79h-.18v12.38z" fill="#f1718c"/><path d="M46.15 34.68a1 1 0 01-.77-.3 1.07 1.07 0 01-.29-.8V7.67a1.08 1.08 0 01.29-.78 1 1 0 01.77-.32h14.67a7.52 7.52 0 012.79.5 6.47 6.47 0 012.27 1.46 6.79 6.79 0 011.49 2.26 7.31 7.31 0 01.53 2.83v1.73a7.66 7.66 0 01-.29 2.18 7.15 7.15 0 01-.87 1.88 6.8 6.8 0 011.2 2.06 7.28 7.28 0 01.43 2.56v3.59a7.33 7.33 0 01-.53 2.81 6.93 6.93 0 01-1.5 2.25 6.43 6.43 0 01-2.26 1.46 7.59 7.59 0 01-2.79.5zM52 12.13V17h7.32a2.22 2.22 0 00.57-.09 2 2 0 00.63-.28 1.47 1.47 0 00.48-.53 1.86 1.86 0 00.22-1V14a1.92 1.92 0 00-.7-1.53 2.21 2.21 0 00-.63-.28 2.67 2.67 0 00-.57-.08zm0 10.31v6.49h7.79a2.21 2.21 0 00.56-.09 1.51 1.51 0 00.6-.28 1.72 1.72 0 00.52-.55 1.83 1.83 0 00.21-1v-2.67a2.16 2.16 0 00-.18-.92 1.5 1.5 0 00-.45-.58 2.13 2.13 0 00-.58-.3 1.74 1.74 0 00-.55-.1zM80.15 6.61a1.06 1.06 0 011.09 1.09v25.88a1 1 0 01-.31.8 1.09 1.09 0 01-.78.3h-4.76a1 1 0 01-.77-.3 1.07 1.07 0 01-.29-.8V7.7a1.08 1.08 0 01.29-.78 1 1 0 01.77-.31zM97.64 35.61a15.65 15.65 0 01-4.9-.66A7.74 7.74 0 0189.56 33a7.17 7.17 0 01-1.81-3.14 15.73 15.73 0 01-.55-4.41v-2.9a15.73 15.73 0 01.55-4.39A7.24 7.24 0 0189.56 15a7.74 7.74 0 013.18-1.93 15.65 15.65 0 014.9-.66h2a15.53 15.53 0 014.87.66 8.26 8.26 0 013.21 1.93 7.81 7.81 0 011.77 3.16 15.71 15.71 0 01.56 4.39v2.9a15.7 15.7 0 01-.56 4.41 7.73 7.73 0 01-1.77 3.14 8.26 8.26 0 01-3.24 2 15.53 15.53 0 01-4.87.66zm.3-17.49a3.27 3.27 0 00-1.66.4 3.8 3.8 0 00-1.2 1.06 4.9 4.9 0 00-.71 1.55 6.43 6.43 0 00-.25 1.81v2.16a5.56 5.56 0 001 3.33 3.81 3.81 0 001.2 1.1 3.37 3.37 0 001.66.4h1.37a3.37 3.37 0 001.66-.4 3.92 3.92 0 001.2-1.1 5.56 5.56 0 001-3.33v-2.16a6.43 6.43 0 00-.25-1.81 4.9 4.9 0 00-.71-1.55 3.91 3.91 0 00-1.2-1.06 3.27 3.27 0 00-1.66-.4zM137.36 30.39a6 6 0 01-2 4.76 7 7 0 01-2.25 1.23 8.67 8.67 0 01-2.81.43h-7.12a7.51 7.51 0 01-5-1.66 5.71 5.71 0 01-1.5-2 6.58 6.58 0 01-.53-2.75V30a1.08 1.08 0 01.33-.82 1.13 1.13 0 01.8-.32h4.66a1 1 0 01.76.32 1.13 1.13 0 01.3.82 1 1 0 00.22.7 1.57 1.57 0 00.51.36 1.88 1.88 0 00.6.12H129.14a2.13 2.13 0 00.61-.12 1.73 1.73 0 00.52-.36 1 1 0 00.21-.7v-1.41h-5.78a31.89 31.89 0 01-3.91-.21 6.42 6.42 0 01-2.85-1 4.77 4.77 0 01-1.76-2.19 11.13 11.13 0 01-.66-3.93v-.76a13.12 13.12 0 01.56-4.31 5 5 0 011.73-2.44 6.33 6.33 0 012.86-1.07 31 31 0 014-.23h11.63a1 1 0 01.76.31 1.17 1.17 0 01.3.82zm-15-9.68a2.08 2.08 0 00.67 1.78 3.44 3.44 0 001.89.42h5.52v-4.79H125a3.27 3.27 0 00-1.93.46 2.42 2.42 0 00-.63 2z"/></svg>